<svg id="visual" viewBox="0 0 900 600" width="900" height="600" xmlns="http://www.w3.org/2000/svg" xmlns:xlink="http://www.w3.org/1999/xlink" version="1.1"><path d="M0 542L6.8 540.2C13.7 538.3 27.3 534.7 41 530.7C54.7 526.7 68.3 522.3 82 526.2C95.7 530 109.3 542 123 545.5C136.7 549 150.3 544 164 538C177.7 532 191.3 525 204.8 522.2C218.3 519.3 231.7 520.7 245.2 523.5C258.7 526.3 272.3 530.7 286 534C299.7 537.3 313.3 539.7 327 536.7C340.7 533.7 354.3 525.3 368 524.5C381.7 523.7 395.3 530.3 409 531.5C422.7 532.7 436.3 528.3 450 526.5C463.7 524.7 477.3 525.3 491 525.2C504.7 525 518.3 524 532 528.8C545.7 533.7 559.3 544.3 573 548.2C586.7 552 600.3 549 614 547.5C627.7 546 641.3 546 654.8 545.8C668.3 545.7 681.7 545.3 695.2 542C708.7 538.7 722.3 532.3 736 529C749.7 525.7 763.3 525.3 777 528.7C790.7 532 804.3 539 818 539C831.7 539 845.3 532 859 530C872.7 528 886.3 531 893.2 532.5L900 534L900 601L893.2 601C886.3 601 872.7 601 859 601C845.3 601 831.7 601 818 601C804.3 601 790.7 601 777 601C763.3 601 749.7 601 736 601C722.3 601 708.7 601 695.2 601C681.7 601 668.3 601 654.8 601C641.3 601 627.7 601 614 601C600.3 601 586.7 601 573 601C559.3 601 545.7 601 532 601C518.3 601 504.7 601 491 601C477.3 601 463.7 601 450 601C436.3 601 422.7 601 409 601C395.3 601 381.7 601 368 601C354.3 601 340.7 601 327 601C313.3 601 299.7 601 286 601C272.3 601 258.7 601 245.2 601C231.7 601 218.3 601 204.8 601C191.3 601 177.7 601 164 601C150.3 601 136.7 601 123 601C109.3 601 95.7 601 82 601C68.3 601 54.7 601 41 601C27.3 601 13.7 601 6.8 601L0 601Z" fill="#0066FF" stroke-linecap="round" stroke-linejoin="miter"></path></svg>