<svg id="visual" viewBox="0 0 900 600" width="900" height="600" xmlns="http://www.w3.org/2000/svg" xmlns:xlink="http://www.w3.org/1999/xlink" version="1.1"><rect x="0" y="0" width="900" height="600" fill="#b0b3d6"></rect><path d="M0 401L21.5 409.3C43 417.7 86 434.3 128.8 438.8C171.7 443.3 214.3 435.7 257.2 430.3C300 425 343 422 385.8 426.3C428.7 430.7 471.3 442.3 514.2 440C557 437.7 600 421.3 642.8 415.8C685.7 410.3 728.3 415.7 771.2 414.2C814 412.7 857 404.3 878.5 400.2L900 396L900 601L878.5 601C857 601 814 601 771.2 601C728.3 601 685.7 601 642.8 601C600 601 557 601 514.2 601C471.3 601 428.7 601 385.8 601C343 601 300 601 257.2 601C214.3 601 171.7 601 128.8 601C86 601 43 601 21.5 601L0 601Z" fill="#787cb5"></path><path d="M0 477L21.5 480.2C43 483.3 86 489.7 128.8 488.8C171.7 488 214.3 480 257.2 471C300 462 343 452 385.8 444.7C428.7 437.3 471.3 432.7 514.2 434.5C557 436.3 600 444.7 642.8 449.8C685.7 455 728.3 457 771.2 464C814 471 857 483 878.5 489L900 495L900 601L878.5 601C857 601 814 601 771.2 601C728.3 601 685.7 601 642.8 601C600 601 557 601 514.2 601C471.3 601 428.7 601 385.8 601C343 601 300 601 257.2 601C214.3 601 171.7 601 128.8 601C86 601 43 601 21.5 601L0 601Z" fill="#7074ae"></path><path d="M0 494L21.5 496.7C43 499.3 86 504.7 128.8 504C171.7 503.3 214.3 496.7 257.2 497.2C300 497.7 343 505.3 385.8 497.8C428.7 490.3 471.3 467.7 514.2 457.2C557 446.7 600 448.3 642.8 459.2C685.7 470 728.3 490 771.2 493.2C814 496.3 857 482.7 878.5 475.8L900 469L900 601L878.5 601C857 601 814 601 771.2 601C728.3 601 685.7 601 642.8 601C600 601 557 601 514.2 601C471.3 601 428.7 601 385.8 601C343 601 300 601 257.2 601C214.3 601 171.7 601 128.8 601C86 601 43 601 21.5 601L0 601Z" fill="#676ba6"></path><path d="M0 526L21.5 519C43 512 86 498 128.8 494.3C171.7 490.7 214.3 497.3 257.2 504.7C300 512 343 520 385.8 522.8C428.7 525.7 471.3 523.3 514.2 523.8C557 524.3 600 527.7 642.8 529C685.7 530.3 728.3 529.7 771.2 529.3C814 529 857 529 878.5 529L900 529L900 601L878.5 601C857 601 814 601 771.2 601C728.3 601 685.7 601 642.8 601C600 601 557 601 514.2 601C471.3 601 428.7 601 385.8 601C343 601 300 601 257.2 601C214.3 601 171.7 601 128.8 601C86 601 43 601 21.5 601L0 601Z" fill="#5f639f"></path><path d="M0 497L21.5 498C43 499 86 501 128.8 501.7C171.7 502.3 214.3 501.7 257.2 503C300 504.3 343 507.7 385.8 515C428.7 522.3 471.3 533.7 514.2 535.7C557 537.7 600 530.3 642.8 529.2C685.7 528 728.3 533 771.2 534.8C814 536.7 857 535.3 878.5 534.7L900 534L900 601L878.5 601C857 601 814 601 771.2 601C728.3 601 685.7 601 642.8 601C600 601 557 601 514.2 601C471.3 601 428.7 601 385.8 601C343 601 300 601 257.2 601C214.3 601 171.7 601 128.8 601C86 601 43 601 21.5 601L0 601Z" fill="#575b98"></path><path d="M0 553L21.5 555.5C43 558 86 563 128.8 564.2C171.7 565.3 214.3 562.7 257.2 562.3C300 562 343 564 385.8 561.2C428.7 558.3 471.3 550.7 514.2 549C557 547.3 600 551.7 642.8 548.7C685.7 545.7 728.3 535.3 771.2 531.8C814 528.3 857 531.7 878.5 533.3L900 535L900 601L878.5 601C857 601 814 601 771.2 601C728.3 601 685.7 601 642.8 601C600 601 557 601 514.2 601C471.3 601 428.7 601 385.8 601C343 601 300 601 257.2 601C214.3 601 171.7 601 128.8 601C86 601 43 601 21.5 601L0 601Z" fill="#4f5291"></path><path d="M0 567L21.5 566.5C43 566 86 565 128.8 566C171.7 567 214.3 570 257.2 569.3C300 568.7 343 564.3 385.8 563.3C428.7 562.3 471.3 564.7 514.2 566.8C557 569 600 571 642.8 570C685.7 569 728.3 565 771.2 565.8C814 566.7 857 572.3 878.5 575.2L900 578L900 601L878.5 601C857 601 814 601 771.2 601C728.3 601 685.7 601 642.8 601C600 601 557 601 514.2 601C471.3 601 428.7 601 385.8 601C343 601 300 601 257.2 601C214.3 601 171.7 601 128.8 601C86 601 43 601 21.5 601L0 601Z" fill="#474a8a"></path></svg>